<?xml version="1.0" standalone="no"?>
<!DOCTYPE svg PUBLIC "-//W3C//DTD SVG 20010904//EN"
 "http://www.w3.org/TR/2001/REC-SVG-20010904/DTD/svg10.dtd">
<svg version="1.0" xmlns="http://www.w3.org/2000/svg"
 width="1280.000000pt" height="1091.000000pt" viewBox="0 0 1280.000000 1091.000000"
 preserveAspectRatio="xMidYMid meet">
<metadata>
Created by potrace 1.15, written by Peter Selinger 2001-2017
</metadata>
<g transform="translate(0.000000,1091.000000) scale(0.100000,-0.100000)"
fill="#000000" stroke="none">
<path d="M8404 10813 c3 -54 10 -195 16 -313 31 -698 50 -1074 54 -1077 1 -1
88 314 193 700 105 386 190 703 189 705 -3 2 -442 82 -454 82 -2 0 -1 -44 2
-97z"/>
<path d="M11278 8728 c-279 -299 -505 -544 -503 -546 1 -1 18 6 36 17 19 11
302 169 629 351 327 182 598 334 602 338 5 6 -221 345 -249 373 -6 6 -203
-199 -515 -533z"/>
<path d="M7236 8438 c-3 -13 -35 -394 -72 -848 -40 -486 -72 -830 -78 -837
-11 -12 -1492 -703 -1507 -703 -5 0 -9 -3 -9 -7 0 -5 301 -134 668 -287 367
-154 689 -290 716 -301 l49 -22 -419 -295 c-2767 -1949 -5657 -3936 -6369
-4378 -110 -68 -203 -129 -207 -135 -5 -5 -7 -16 -5 -22 5 -26 440 -603 454
-603 12 0 1822 1411 6168 4807 433 338 541 418 547 405 4 -9 34 -249 69 -532
97 -809 117 -971 121 -975 2 -2 255 289 563 646 308 357 564 649 568 649 4 0
375 -72 824 -160 450 -87 818 -158 820 -156 2 1 -197 333 -442 736 l-445 734
408 735 c225 405 409 737 408 738 -1 1 -374 -85 -829 -192 -455 -107 -833
-195 -840 -195 -8 0 -269 275 -581 610 -313 336 -570 610 -572 610 -2 0 -6
-10 -8 -22z"/>
<path d="M4659 8005 c-55 -114 -98 -209 -97 -210 7 -5 1440 -336 1443 -333 3
3 -1216 739 -1236 746 -5 2 -55 -89 -110 -203z"/>
<path d="M11965 5321 l630 -379 101 207 c87 175 99 207 85 213 -14 7 -1426
338 -1440 338 -3 0 278 -171 624 -379z"/>
<path d="M8696 3051 c-103 -379 -189 -697 -189 -707 -2 -16 26 -23 221 -57
123 -22 225 -38 227 -36 2 2 -3 135 -10 294 -8 160 -19 387 -24 505 -24 496
-33 685 -35 687 -2 2 -87 -307 -190 -686z"/>
</g>
</svg>
